<?xml version="1.0" standalone="no"?><!DOCTYPE svg PUBLIC "-//W3C//DTD SVG 1.1//EN" "http://www.w3.org/Graphics/SVG/1.1/DTD/svg11.dtd"><svg t="1651737804499" class="icon" viewBox="0 0 1024 1024" version="1.1" xmlns="http://www.w3.org/2000/svg" p-id="2271" xmlns:xlink="http://www.w3.org/1999/xlink" width="200" height="200"><defs><style type="text/css">@font-face { font-family: feedback-iconfont; src: url("//at.alicdn.com/t/font_1031158_u69w8yhxdu.woff2?t=1630033759944") format("woff2"), url("//at.alicdn.com/t/font_1031158_u69w8yhxdu.woff?t=1630033759944") format("woff"), url("//at.alicdn.com/t/font_1031158_u69w8yhxdu.ttf?t=1630033759944") format("truetype"); }
</style></defs><path d="M856.436364 1007.709091c-11.636364 0-23.272727-9.309091-27.927273-20.945455l-111.709091-309.527272H304.872727L195.490909 982.109091c-4.654545 11.636364-16.290909 20.945455-27.927273 20.945454-2.327273 0-6.981818 0-9.309091-2.327272-11.636364-6.981818-18.618182-11.636364-20.945454-18.618182-4.654545-9.309091-2.327273-18.618182-2.327273-23.272727L477.090909 44.218182c2.327273-6.981818 11.636364-27.927273 37.236364-27.927273 13.963636 0 30.254545 9.309091 37.236363 27.927273l337.454546 916.945454v4.654546c2.327273 6.981818 2.327273 13.963636 0 23.272727-4.654545 9.309091-11.636364 13.963636-20.945455 18.618182l-4.654545 2.327273c-2.327273-2.327273-4.654545-2.327273-6.981818-2.327273zM463.127273 253.672727c-41.890909 109.381818-83.781818 223.418182-125.672728 337.454546l-6.981818 20.945454h360.727273L514.327273 118.690909l-51.2 134.981818z" p-id="2272"></path></svg>