<?xml version="1.0" standalone="no"?><!DOCTYPE svg PUBLIC "-//W3C//DTD SVG 1.1//EN" "http://www.w3.org/Graphics/SVG/1.1/DTD/svg11.dtd"><svg t="1651743702544" class="icon" viewBox="0 0 1024 1024" version="1.1" xmlns="http://www.w3.org/2000/svg" p-id="19591" xmlns:xlink="http://www.w3.org/1999/xlink" width="200" height="200"><defs><style type="text/css">@font-face { font-family: feedback-iconfont; src: url("//at.alicdn.com/t/font_1031158_u69w8yhxdu.woff2?t=1630033759944") format("woff2"), url("//at.alicdn.com/t/font_1031158_u69w8yhxdu.woff?t=1630033759944") format("woff"), url("//at.alicdn.com/t/font_1031158_u69w8yhxdu.ttf?t=1630033759944") format("truetype"); }
</style></defs><path d="M160 579.2a28.8 28.8 0 0 1 28.8 28.8v170.672c0 30.4 25.664 56.528 59.2 56.528h528c33.536 0 59.2-26.144 59.2-56.528V608a28.8 28.8 0 0 1 57.6 0v170.672c0 63.856-53.12 114.128-116.8 114.128h-528c-63.68 0-116.8-50.272-116.8-114.128V608a28.8 28.8 0 0 1 28.8-28.8z" p-id="19592"></path><path d="M540.8 176v464a28.8 28.8 0 0 1-57.6 0V176a28.8 28.8 0 0 1 57.6 0z" p-id="19593"></path><path d="M331.632 459.632a28.8 28.8 0 0 1 40.736 0l160 160a28.8 28.8 0 0 1-40.736 40.736l-160-160a28.8 28.8 0 0 1 0-40.736z" p-id="19594"></path><path d="M692.368 459.632a28.8 28.8 0 0 0-40.736 0l-160 160a28.8 28.8 0 0 0 40.736 40.736l160-160a28.8 28.8 0 0 0 0-40.736z" p-id="19595"></path></svg>