<?xml version="1.0" standalone="no"?><!DOCTYPE svg PUBLIC "-//W3C//DTD SVG 1.1//EN" "http://www.w3.org/Graphics/SVG/1.1/DTD/svg11.dtd"><svg t="1651743430931" class="icon" viewBox="0 0 1024 1024" version="1.1" xmlns="http://www.w3.org/2000/svg" p-id="7676" xmlns:xlink="http://www.w3.org/1999/xlink" width="200" height="200"><defs><style type="text/css">@font-face { font-family: feedback-iconfont; src: url("//at.alicdn.com/t/font_1031158_u69w8yhxdu.woff2?t=1630033759944") format("woff2"), url("//at.alicdn.com/t/font_1031158_u69w8yhxdu.woff?t=1630033759944") format("woff"), url("//at.alicdn.com/t/font_1031158_u69w8yhxdu.ttf?t=1630033759944") format("truetype"); }
</style></defs><path d="M544.469333 55.637333l352 209.28a42.666667 42.666667 0 0 1 20.864 36.693334v420.778666a42.666667 42.666667 0 0 1-20.864 36.693334l-352 209.28a42.666667 42.666667 0 0 1-43.605333 0l-352-209.28A42.666667 42.666667 0 0 1 128 722.368V301.610667a42.666667 42.666667 0 0 1 20.864-36.693334l352-209.28a42.666667 42.666667 0 0 1 43.605333 0z m71.488 116.949334l-91.221333 158.058666 166.293333 96a42.666667 42.666667 0 0 1 15.616 58.304l-128 221.696-0.597333-0.341333-100.693333 173.482667-6.848-3.946667 52.16 31.018667L853.333333 710.250667V313.728L615.957333 172.586667zM522.666667 117.12L192 313.728v396.522667l230.677333 137.152 100.352-172.864-166.08-95.893334A42.666667 42.666667 0 0 1 341.333333 520.362667L560.938667 139.882667 522.666667 117.12z m-29.930667 268.949333l-85.333333 147.84 147.754666 85.269334 17.984-30.997334 67.413334-116.778666-147.818667-85.333334z" p-id="7677"></path></svg>