<?xml version="1.0" standalone="no"?><!DOCTYPE svg PUBLIC "-//W3C//DTD SVG 1.1//EN" "http://www.w3.org/Graphics/SVG/1.1/DTD/svg11.dtd"><svg t="1654587710479" class="icon" viewBox="0 0 1024 1024" version="1.1" xmlns="http://www.w3.org/2000/svg" p-id="21551" xmlns:xlink="http://www.w3.org/1999/xlink" width="200" height="200"><defs><style type="text/css">@font-face { font-family: feedback-iconfont; src: url("//at.alicdn.com/t/font_1031158_u69w8yhxdu.woff2?t=1630033759944") format("woff2"), url("//at.alicdn.com/t/font_1031158_u69w8yhxdu.woff?t=1630033759944") format("woff"), url("//at.alicdn.com/t/font_1031158_u69w8yhxdu.ttf?t=1630033759944") format("truetype"); }
</style></defs><path d="M447 704.1l6.7 22.9-0.5 0.1-1 0.3-1 0.3-1 0.3-1 0.3-1 0.3-1 0.3-1 0.3-1 0.3-1 0.3-1 0.3-1 0.2-1 0.3-1 0.2-1 0.2-1 0.2-1 0.2-1 0.2-1 0.2-1 0.2-1 0.2-1 0.2-1 0.2-1 0.2-1 0.2-1 0.2-1 0.2-1 0.2-1 0.2-1 0.2-1 0.2-1 0.2-1 0.2-1 0.2-1 0.2-1 0.2-1 0.2-1 0.2-1 0.2-1 0.2-1 0.2-1 0.2-1 0.2-1 0.2-1 0.2-1 0.2-1 0.1-1 0.2-1 0.1h-0.2l-3.2-23.6h0.1l1-0.1 0.9-0.1 0.9-0.1 0.9-0.1 0.9-0.1 0.9-0.2 0.9-0.2 0.9-0.2 0.9-0.2 0.9-0.2 0.9-0.2 0.9-0.2 0.9-0.2 0.9-0.2 0.9-0.2 0.9-0.2 0.9-0.2 0.9-0.2 0.9-0.2 0.9-0.2 0.9-0.2 0.9-0.2 0.9-0.2 0.9-0.2 0.9-0.2 0.9-0.2 0.9-0.2 0.9-0.2 0.9-0.2 0.9-0.2 0.9-0.2 0.9-0.2 0.9-0.2 0.9-0.2 0.9-0.2 0.9-0.2 0.9-0.2 0.9-0.2 0.9-0.2 0.9-0.2 0.9-0.2 0.9-0.2 0.9-0.2 0.9-0.3 0.9-0.2 0.9-0.3 0.9-0.3 0.9-0.3 1.8-0.4z m63.4-26.7l11.6 20.9-0.6 0.3-0.9 0.5-0.9 0.5-0.9 0.5-0.9 0.5-0.8 0.4-0.9 0.5-0.9 0.5-0.9 0.5-0.9 0.5-0.9 0.5-0.9 0.5-0.9 0.5-0.9 0.5-0.9 0.4-0.9 0.5-0.9 0.4-0.9 0.4-0.9 0.4-0.9 0.4-0.9 0.4-0.9 0.4-0.9 0.4-0.9 0.4-0.9 0.4-0.9 0.4-0.9 0.4-0.9 0.4-0.9 0.4-0.9 0.4-0.9 0.4-0.9 0.4-0.9 0.4-0.9 0.4-0.9 0.4-0.9 0.4-0.9 0.4-0.9 0.4-0.9 0.4-0.9 0.4-0.9 0.4-0.9 0.4-0.9 0.4-0.9 0.4-0.9 0.4-0.9 0.4-0.9 0.4-0.9 0.4-0.9 0.4-0.7 0.3-8.4-22.3 0.7-0.3 0.9-0.3 0.9-0.3 0.9-0.3 0.9-0.3 0.9-0.3 0.9-0.3 0.9-0.3 0.9-0.3 0.9-0.3 0.9-0.4 0.9-0.4 0.9-0.4 0.9-0.4 0.8-0.4 0.9-0.4 0.9-0.4 0.8-0.4 0.9-0.4 0.9-0.4 0.8-0.4 0.8-0.4 0.8-0.4 0.8-0.4 0.8-0.4 0.8-0.4 0.8-0.4 0.8-0.4 0.8-0.4 0.8-0.4 0.8-0.4 0.8-0.4 0.8-0.4 0.8-0.4 0.8-0.4 0.8-0.4 0.8-0.4 0.8-0.4 0.8-0.4 0.8-0.4 0.8-0.4 0.8-0.4 0.8-0.4 0.8-0.4 0.8-0.4 0.8-0.4 0.8-0.4 0.8-0.5 0.8-0.4 0.4-1z m49.4-33.9l15.2 18.4-0.8 0.7-0.8 0.7-0.8 0.7-0.8 0.7-0.8 0.6-0.8 0.6-0.8 0.6-0.8 0.6-0.8 0.6-0.8 0.6-0.8 0.6-0.8 0.6-0.8 0.6-0.8 0.6-0.8 0.6-0.8 0.6-0.8 0.6-0.8 0.6-0.8 0.6-0.8 0.6-0.8 0.6-0.8 0.6-0.8 0.6-0.8 0.6-0.8 0.6-0.8 0.6-0.8 0.6-0.8 0.6-0.8 0.6-0.8 0.6-0.8 0.6-0.8 0.6-0.8 0.6-0.8 0.6-0.8 0.6-0.8 0.6-0.8 0.6-0.8 0.6-0.7 0.5-13.9-20.1 0.6-0.4 0.8-0.5 0.8-0.5 0.8-0.5 0.8-0.5 0.8-0.5 0.8-0.5 0.8-0.5 0.8-0.5 0.8-0.5 0.8-0.5 0.8-0.5 0.8-0.5 0.8-0.6 0.8-0.6 0.8-0.6 0.8-0.6 0.8-0.6 0.8-0.6 0.8-0.6 0.8-0.6 0.8-0.6 0.8-0.6 0.8-0.6 0.8-0.6 0.8-0.6 0.8-0.6 0.8-0.6 0.8-0.6 0.8-0.6 0.8-0.6 0.8-0.6 0.8-0.6 0.8-0.6 0.8-0.6 0.8-0.6 0.7-0.6 0.8-0.6-0.3-0.6z m-123.1-66.4l-5.9-23.1 0.2-0.1 0.2-0.1 0.2-0.1 0.3-0.1 0.2-0.1 0.2-0.1 0.3-0.1 0.2-0.1 0.2-0.1 0.2-0.1 0.2-0.1 0.3-0.1 0.2-0.1 0.2-0.1 0.3-0.1 0.2-0.1 0.2-0.1 0.3-0.1 0.2-0.1 0.3-0.1 0.2-0.1 0.2-0.1 0.2-0.1 0.2-0.1 0.2-0.1 0.2-0.1 0.2-0.1 0.2-0.1 0.3-0.1 0.2-0.1 0.2-0.1 0.2-0.1 0.2-0.1 0.3-0.1 0.2-0.1 0.2-0.1 0.3-0.1 0.2-0.1 0.2-0.1 0.3-0.1 0.2-0.1 0.2-0.1 0.3-0.1 0.2-0.1 0.2-0.1 0.2-0.1 0.3-0.1 0.2-0.1 0.2-0.1 0.3-0.1 0.2-0.1 0.2-0.1 0.2-0.1 0.2-0.1 0.2-0.1 0.3-0.1 0.2-0.1 0.2-0.1 0.2-0.1 0.2-0.1 0.2-0.1 0.2-0.1 0.2-0.1 0.2-0.1 0.2-0.1 0.2-0.1 0.2-0.1 0.2-0.1 0.2-0.1 0.2-0.1 0.2-0.1 0.2-0.1 0.2-0.1 0.2-0.1 0.2-0.1 0.2-0.1 0.2-0.1 0.2-0.1 0.2-0.1 0.2-0.1 0.2-0.1 0.2-0.1 0.2-0.1 0.2-0.1 0.2-0.1 0.2-0.1 0.2-0.1 0.2-0.1 0.2-0.1 0.2-0.1 0.2-0.1 0.2-0.1 0.2-0.1 0.2-0.1 0.2-0.1 0.2-0.1 0.2-0.1 0.2-0.1 0.2-0.1 0.2-0.1 0.2-0.1 0.2-0.1 0.2-0.1 0.2-0.1 0.2-0.1 0.2-0.1 0.2-0.1 0.2-0.1 0.2-0.1 0.2-0.1 0.2-0.1 0.2-0.1 0.2-0.1 0.2-0.1 0.2-0.1 0.2-0.1 0.2-0.1 0.2-0.1 0.2-0.1 0.2-0.1 0.2-0.1 0.2-0.2 0.2-0.1 0.2-0.1 0.2-0.2 0.2-0.1 0.2-0.1 0.2-0.1 0.2-0.1 0.2-0.1 0.2-0.2 0.2-0.1 0.2-0.1 0.2-0.1 0.2-0.2 0.2-0.1 0.2-0.1 0.2-0.2 0.2-0.1 0.2-0.2 0.2-0.1 0.2-0.2 0.2-0.1 0.2-0.2 0.2-0.2 0.2-0.2 0.2-0.2 0.2-0.1 0.2-0.2 0.2-0.2 0.2-0.2 0.2-0.2 0.2-0.2 0.2-0.2 0.2-0.2 0.2-0.2 0.2-0.2 0.2-0.2 0.2-0.2 0.2-0.2 0.2-0.2 0.2-0.2 0.2-0.2 0.2-0.2 0.2-0.2 0.2-0.2 15.8 17.9-0.2 0.2-0.2 0.2-0.2 0.2-0.2 0.2-0.2 0.2-0.2 0.2-0.2 0.2-0.2 0.2-0.3 0.2-0.2 0.2-0.2 0.2-0.3 0.2-0.3 0.2-0.3 0.2-0.2 0.2-0.3 0.2-0.3 0.2-0.2 0.2-0.3 0.2-0.3 0.2-0.2 0.2-0.3 0.2-0.3 0.2-0.3 0.2-0.3 0.2-0.3 0.2-0.2 0.2-0.3 0.2-0.3 0.2-0.3 0.2-0.3 0.2-0.3 0.2-0.3 0.2-0.3 0.2-0.3 0.2-0.3 0.2-0.3 0.2-0.3 0.2-0.3 0.2-0.3 0.2-0.3 0.2-0.3 0.2-0.3 0.2-0.3 0.2-0.3 0.2-0.3 0.2-0.3 0.2-0.3 0.2-0.3 0.2-0.3 0.2-0.3 0.2-0.3 0.2-0.3 0.2-0.3 0.2-0.3 0.2-0.3 0.2-0.3 0.2-0.3 0.2-0.3 0.2-0.3 0.2-0.3 0.2-0.3 0.2-0.3 0.2-0.3 0.2-0.3 0.2-0.3 0.2-0.3 0.2-0.3 0.2-0.3 0.2-0.3 0.2-0.3 0.2-0.3 0.2-0.3 0.2-0.3 0.2-0.3 0.2-0.3 0.1-0.3 0.2-0.3 0.2-0.3 0.2-0.3 0.1-0.3 0.2-0.3 0.1-0.3 0.1-0.3 0.2-0.3 0.1-0.3 0.1-0.3 0.1-0.3 0.1-0.3 0.1-0.3 0.1-0.3 0.1 3.7-0.5-0.3 0.1-0.3 0.1-0.3 0.1-0.3 0.1-0.3 0.1-0.3 0.1-0.3 0.1-0.3 0.1-0.3 0.1-0.3 0.1-0.3 0.1-0.3 0.1-0.3 0.1-0.3 0.1-0.3 0.1-0.3 0.1-0.3 0.1-0.3 0.1-0.3 0.1-0.3 0.1-0.3 0.1-0.3 0.1-0.3 0.1-0.3 0.1-0.3 0.1-0.3 0.1-0.3 0.1-0.3 0.1-0.3 0.1-0.3 0.1-0.3 0.1-0.3 0.1-0.3 0.1-0.3 0.1-0.3 0.1-0.3 0.1-0.3 0.1-0.3 0.1-0.3 0.1-0.3 0.1-0.3 0.1-0.3 0.1-0.3 0.1-0.3 0.1-0.3 0.1-0.3 0.1-0.3 0.1-0.3 0.1-0.3 0.1-0.3 0.1-0.3 0.1-0.3 0.1-0.3 0.1-0.3 0.1-0.3 0.1-0.3 0.1-0.3 0.1-0.3 0.1-0.3 0.1-0.3 0.1-0.3 0.1-0.3 0.1-0.3 0.1-0.3 0.1-0.3 0.1-0.3 0.1-0.3 0.1-0.3 0.1-0.3 0.1-0.3 0.1-0.3 0.1-0.3 0.1-0.3 0.1-0.4 0.8z m-77.8-6.6l9.7-21.8 0.3 0.1 0.4 0.2 0.4 0.2 0.4 0.2 0.4 0.2 0.4 0.2 0.4 0.2 0.4 0.2 0.4 0.2 0.4 0.1 0.4 0.2 0.4 0.2 0.4 0.2 0.4 0.1 0.4 0.1 0.4 0.1 0.4 0.1 0.4 0.1 0.4 0.1 0.4 0.1 0.4 0.1 0.4 0.1 0.4 0.1 0.4 0.1 0.4 0.1 0.4 0.1 0.4 0.1 0.4 0.1 0.4 0.1 0.4 0.1 0.4 0.1 0.4 0.1 0.4 0.1 0.4 0.1 0.4 0.1 0.4 0.1 0.4 0.1 0.4 0.1 0.4 0.1 0.4 0.1 0.4 0.1 0.4 0.1 0.4 0.1 0.4 0.1 0.4 0.1 0.4 0.1 0.4 0.1 0.4 0.1 0.4 0.1 0.4 0.1 0.4 0.1 0.4 0.1 0.4 0.1 0.4 0.1 0.4 0.1 0.4 0.1 0.4 0.1 0.4 0.1 0.4 0.1 0.4 0.1 0.4 0.1 0.4 0.1 0.4 0.1 0.4 0.1 0.4 0.1 0.4 0.1 0.4 0.1H408.4l0.7 23.8H407.2h0.8H396.9l-0.5-0.1h-0.5l-0.5-0.1-0.5-0.1-0.5-0.1-0.5-0.1-0.5-0.1-0.5-0.1-0.5-0.1-0.5-0.1-0.5-0.1-0.5-0.1-0.5-0.1-0.5-0.1-0.5-0.1-0.5-0.1-0.5-0.1-0.5-0.1-0.5-0.1-0.5-0.1-0.5-0.1-0.5-0.1-0.5-0.1-0.5-0.1-0.5-0.1-0.5-0.1-0.5-0.1-0.5-0.1-0.5-0.1-0.5-0.1-0.5-0.1-0.5-0.1-0.5-0.1-0.5-0.1-0.5-0.1-0.5-0.1-0.5-0.1-0.5-0.1-0.5-0.1-0.5-0.1-0.5-0.1-0.5-0.1-0.5-0.2-0.5-0.2-0.5-0.1-0.5-0.2-0.5-0.2-0.5-0.2-0.5-0.2-0.5-0.2-0.5-0.2-0.5-0.2-0.5-0.2-0.5-0.2-0.5-0.2-0.5-0.2-0.5-0.2-0.5-0.2-0.5-0.2-0.5-0.2-0.5-0.2-0.5-0.2-0.5-0.2-0.5-0.2-0.5-0.2-0.5-0.2-0.5-0.2-0.5-0.2-0.5-0.2-0.5-0.2-0.5-0.2-0.5-0.2-0.5-0.2-1.5 0.4zM304 513.9l22.2-8.6 0.1 0.4 0.1 0.4 0.1 0.4 0.1 0.4 0.1 0.4 0.1 0.4 0.1 0.4 0.2 0.4 0.2 0.4 0.2 0.3 0.2 0.4 0.2 0.3 0.2 0.3 0.2 0.3 0.2 0.4 0.2 0.3 0.2 0.3 0.2 0.4 0.2 0.3 0.2 0.3 0.2 0.3 0.2 0.3 0.2 0.3 0.2 0.3 0.2 0.3 0.2 0.3 0.2 0.3 0.2 0.3 0.2 0.3 0.2 0.3 0.2 0.3 0.2 0.3 0.2 0.3 0.2 0.3 0.2 0.3 0.2 0.3 0.2 0.3 0.2 0.3 0.2 0.3 0.2 0.3 0.2 0.3 0.2 0.3 0.2 0.3 0.2 0.3 0.2 0.3 0.2 0.3 0.2 0.3 0.2 0.3 0.2 0.3 0.2 0.3 0.2 0.3 0.2 0.3 0.2 0.3 0.2 0.3 0.2 0.3 0.2 0.3 0.2 0.3 0.2 0.3 0.2 0.3 0.2 0.3 0.2 0.3 0.2 0.3 0.3 0.3 0.2 0.3 0.3 0.3 0.3 0.3 0.3 0.3 0.3 0.3 0.3 0.3 0.3 0.3 0.3 0.3 0.3 0.3 0.3 0.3 0.3 0.3 0.3 0.3 0.3 0.3 0.3 0.3 0.3 0.3 0.3 0.3 0.3 0.3 0.3 0.3 0.3 0.3 0.3 0.3 0.3 0.3 0.3 0.3 0.3 0.3 0.3 0.3 0.3 0.3 0.3 0.3 0.3 0.3 0.3 0.3 0.3 0.3 0.3 0.3 0.3 0.3 0.3 0.3 0.3 0.3 0.3 0.3 0.3 0.3 0.3 0.3 0.3 0.3 0.3 0.3 0.3 0.3 0.3 0.3 0.3 0.2 0.3 0.3 0.2 0.2-14.9 18.6-0.3-0.2-0.4-0.3-0.4-0.3-0.4-0.3-0.4-0.3-0.4-0.3-0.4-0.3-0.4-0.3-0.4-0.3-0.4-0.3-0.4-0.3-0.4-0.3-0.4-0.3-0.4-0.3-0.4-0.3-0.4-0.3-0.4-0.3-0.4-0.3-0.4-0.3-0.4-0.4-0.4-0.4-0.4-0.4-0.4-0.4-0.4-0.4-0.4-0.4-0.4-0.4-0.4-0.4-0.4-0.4-0.4-0.4-0.4-0.4-0.3-0.4-0.4-0.4-0.4-0.4-0.3-0.4-0.3-0.4-0.4-0.4-0.3-0.4-0.3-0.4-0.3-0.4-0.3-0.4-0.3-0.4-0.3-0.4-0.3-0.4-0.3-0.4-0.3-0.4-0.3-0.4v-0.3l-0.3-0.4-0.3-0.4-0.3-0.4-0.3-0.4-0.3-0.4-0.3-0.4-0.3-0.4-0.3-0.4-0.3-0.4-0.3-0.4-0.3-0.4-0.3-0.4-0.3-0.4-0.3-0.4-0.3-0.4-0.3-0.4-0.3-0.4-0.3-0.4-0.3-0.4-0.3-0.4-0.3-0.4-0.3-0.4-0.3-0.4-0.3-0.4-0.3-0.4-0.3-0.4-0.3-0.4-0.3-0.4-0.3-0.4-0.3-0.4-0.3-0.4-0.3-0.4-0.2-0.4-0.3-0.5-0.2-0.4-0.2-0.4-0.2-0.5-0.2-0.5-0.2-0.5-0.2-0.5-0.2-0.5-0.2-0.5-0.2-0.5-0.2-0.5-0.2-0.5-0.2-0.5-0.2-0.5-0.2-0.5-0.2-0.5-0.2-0.5-0.2-0.5-0.2-0.5-0.2-0.5-0.2-0.5-0.2-0.5-0.2-0.5-0.2-0.5-0.2-0.5-0.1-0.6z m76.3-159.8l6.6 22.9-0.4 0.1-0.8 0.2-0.8 0.3-0.8 0.3-0.8 0.3-0.8 0.3-0.8 0.3-0.8 0.3-0.8 0.3-0.8 0.3-0.8 0.3-0.8 0.3-0.8 0.3-0.8 0.3-1.1 0.1-0.8 0.3-0.8 0.3-0.8 0.3-0.8 0.3-0.8 0.3-0.8 0.3-0.8 0.4-0.8 0.4-0.8 0.4-0.8 0.4-0.8 0.4-0.8 0.4-0.8 0.4-0.8 0.4-0.8 0.4-0.8 0.4-0.8 0.4-0.8 0.4-0.8 0.4-0.8 0.4-0.8 0.4-0.8 0.4-0.8 0.4-0.8 0.5-0.8 0.5-0.8 0.5-0.8 0.5-0.8 0.5-0.8 0.5-0.8 0.5-0.8 0.5-0.8 0.5-0.8 0.5-0.8 0.5-0.8 0.5-13.6-19.6 0.9-0.6 0.9-0.6 0.9-0.6 0.9-0.6 0.9-0.6 0.9-0.6 0.9-0.6 0.9-0.6 0.9-0.6 0.9-0.5 0.9-0.5 0.9-0.5 0.9-0.5 0.9-0.5 0.9-0.5 0.9-0.5 0.9-0.5 0.9-0.5 0.9-0.5 0.9-0.5 0.9-0.5 0.9-0.5 0.9-0.5 0.9-0.5 0.9-0.4 0.9-0.4 0.9-0.4 0.9-0.4 1-0.4 1-0.4 1-0.4 1-0.4 1-0.4 1-0.4 1-0.4 1-0.4 1-0.4 1-0.4 1-0.4 1-0.3 1-0.3 1-0.3 1-0.3 1-0.3 1-0.3 1-0.3 1-0.3 1-0.3 1-0.3h0.7z m76.6-2.5l-5 23.3-0.8-0.2-0.8-0.2-0.8-0.2-0.8-0.2-0.8-0.2-0.8-0.2-0.8-0.1-0.8-0.1-0.8-0.1-0.9-0.1-0.8-0.1-0.8-0.1-0.9-0.1-0.8-0.1-0.8-0.1-0.9-0.1-0.9-0.1-0.9-0.1-0.8-0.1-0.8-0.1-0.9-0.1-0.9-0.1-0.9-0.1-0.8-0.1-0.9-0.1H415.9l-0.9 0.1-0.9 0.1-0.9 0.1-0.9 0.1-0.9 0.1-0.9 0.1-0.8 0.1-0.9 0.1-0.9 0.1h-0.1L405 349h0.3l1-0.1 1-0.1 1-0.1 1-0.1 1-0.1 1-0.1 1-0.1 1-0.1 1-0.1 1-0.1h15l1 0.1 1 0.1 1 0.1 1 0.1 1 0.1 1 0.1 1 0.1 1 0.1 1 0.1 1 0.1 1 0.1 1 0.1 1 0.1 1 0.1 1 0.1 1 0.1 1 0.2 1 0.2 1 0.2 1 0.2 1 0.2 1 0.2 1 0.2 1 0.2 1 0.2 1.6 0.2z m68.7 33.8l-15.3 18.3-0.4-0.3-0.7-0.6-0.7-0.6-0.7-0.6-0.7-0.6-0.7-0.6-0.7-0.5-0.7-0.5-0.7-0.5-0.7-0.5-0.7-0.5-0.7-0.5-0.7-0.5-0.7-0.5-0.7-0.5-0.7-0.5-0.7-0.5-0.7-0.5-0.7-0.5-0.7-0.5-0.7-0.5-0.7-0.5-0.7-0.5-0.8-0.5-0.8-0.5-0.8-0.4-0.8-0.4-0.8-0.4-0.8-0.4-0.8-0.4-0.8-0.4-0.8-0.4-0.8-0.4-0.8-0.4-0.8-0.4-0.8-0.4-0.8-0.4-0.8-0.4-0.8-0.4-0.8-0.4-0.8-0.4-0.8-0.4-0.8-0.4-0.8-0.4-0.8-0.3-0.8-0.3-0.8-0.3-0.8-0.3-0.8-0.3-0.8-0.3-0.4-0.1 8.7-22.2 0.5 0.2 0.9 0.4 0.9 0.4 0.9 0.4 0.9 0.4 0.9 0.4 0.9 0.4 0.9 0.4 0.9 0.4 0.9 0.4 0.9 0.4 0.9 0.4 0.9 0.4 0.9 0.5 0.9 0.5 0.9 0.5 0.9 0.5 0.9 0.5 0.9 0.5 0.9 0.5 0.9 0.5 0.9 0.5 0.9 0.5 0.9 0.5 0.9 0.5 0.9 0.5 0.9 0.5 0.9 0.5 0.9 0.6 0.9 0.6 0.9 0.6 0.9 0.6 0.9 0.6 0.9 0.6 0.9 0.6 0.9 0.6 0.9 0.6 0.9 0.6 0.8 0.6 0.8 0.6 0.8 0.6 0.8 0.6 0.8 0.6 0.8 0.6 0.8 0.6 0.8 0.6 0.8 0.7 0.8 0.7 0.8 0.7 0.8 0.7 1 0.1z m37.8 45.6l-20.8 11.8-0.5-0.9-0.5-0.9-0.5-0.8-0.5-0.8-0.5-0.8-0.5-0.8-0.5-0.8-0.5-0.8-0.5-0.8-0.5-0.8-0.5-0.8-0.5-0.8-0.5-0.8-0.5-0.8-0.5-0.8-0.6-0.8-0.6-0.8-0.6-0.8-0.6-0.8-0.6-0.8-0.6-0.8-0.6-0.7-0.6-0.7-0.6-0.7-0.6-0.7-0.6-0.7-0.6-0.7-0.6-0.7-0.6-0.7-0.6-0.7-0.2-0.2 18-15.7 0.3 0.3 0.7 0.8 0.7 0.8 0.7 0.8 0.7 0.8 0.7 0.8 0.7 0.9 0.7 0.9 0.7 0.9 0.7 0.9 0.7 0.9 0.7 0.9 0.7 0.9 0.7 0.9 0.6 0.9 0.6 0.9 0.6 0.9 0.6 0.9 0.6 0.9 0.6 0.9 0.6 0.9 0.6 0.9 0.6 0.9 0.6 1 0.6 1 0.6 1 0.6 1 0.6 1 0.6 1 0.6 1 0.5 0.8zM379.1 716.1l1.7 23.8-1 0.1-1 0.1-1 0.1-1 0.1-1 0.1-1 0.1h-1.1l-1.1 0.1H335.3l-1.1-0.1-1.1-0.1-1.1-0.1-1.1-0.1 1.4-23.8 1 0.1 1 0.1 1 0.1 1 0.1h34l1-0.1h1l1-0.1 1-0.1 1-0.1 1-0.1 1-0.1 1.8-0.1z" fill="#9A5984" p-id="21552"></path><path d="M340.6 470.9c-9.6-2.8-15.1-12.8-12.4-22.4 2.8-9.6 12.8-15.1 22.4-12.4l73 21.1c9.6 2.8 15.1 12.8 12.4 22.4-2.1 7.3-8.5 12.3-15.7 13l-46.6 5.9c-9.9 1.3-19-5.8-20.2-15.7-0.3-2.8-0.1-5.5 0.8-8l-13.7-3.9z m264.8 16.2c-4.2 9.1-15 13-24.1 8.7-9.1-4.2-13-15-8.7-24.1 5.9-12.5 15.1-23 26.6-30.4 11.1-7.2 24.4-11.5 38.6-11.9 19.6-0.6 36.6 5.9 49.8 16.6 8.7 7.1 15.6 15.9 20.4 25.8 4.8 9.8 7.5 20.7 7.8 32.1 0.5 17.9-5.1 36.6-18.4 53-7.2 8.9-12.6 14.3-17.2 18.9-7.6 7.6-12.4 12.5-21.8 34.4-7.2 16.9-19.1 27-32.2 31.4-8.5 2.9-17.4 3.3-25.9 1.6-8.4-1.7-16.4-5.5-22.9-11.2-10.2-8.8-16.9-21.6-16.9-37.3 0-10 8.1-18.2 18.2-18.2 10 0 18.2 8.1 18.2 18.2 0 4.3 1.7 7.7 4.3 9.9 1.8 1.5 4 2.6 6.3 3.1s4.8 0.3 7.1-0.5c4-1.4 7.8-4.9 10.5-11.3 12.1-28.3 18.8-35.1 29.5-45.8 4-4 8.7-8.7 14.7-16.2 7.4-9.1 10.6-19.4 10.3-29.1-0.2-5.9-1.7-11.8-4.3-17.2-2.6-5.3-6.2-9.9-10.6-13.5-6.8-5.5-15.7-8.8-26-8.5-7.3 0.2-14.2 2.5-20 6.2-5.8 3.9-10.4 9.1-13.3 15.3zM814.2 854c-1.8-3.2-5.4-9.1-9.8-16.3-23-37.4-71.7-116.5-62.5-166.4 7-38 23.9-68.9 41.1-100.3 26.2-47.9 53.1-97.2 53.1-176 0-76.6-31.5-141.3-82.5-187.4-52.5-47.4-125.4-74.8-205.7-74.8-17.3 0-34.5 1.7-51.6 5-65.2 12.5-125.8 47.8-170 94.2-44.9 47-73.3 105.7-73.3 164.2 0 11 1 22.1 3.2 33.3 1.4 7.1-19.1 41.6-40.7 77.9-10 16.8-20.2 34-28.5 49.2-1.6 2.9-2.8 5.7-3.5 8.5-2.7 9.3-1.6 18.4 2.2 26.5 3.6 7.6 9.7 13.8 17.4 18.1 3 1.6 6.2 3 9.4 3.9 7.5 2.2 19 4.5 29.7 6.6-2.4 7.1-5.4 14.8-10.1 24.3-4.4 9-0.7 19.9 8.2 24.3 0.2 0.1 0.5 0.2 0.7 0.3-3.7 2.2-6.7 5.8-8.1 10.2-3 9.6 2.4 19.7 11.9 22.7 11.1 3.4 9.5 8.9 7.4 16-4.3 14.9-9.3 32.4 0.3 54.6 0.3 0.7 0.6 1.3 1 2h-0.1c20.1 34.3 94.7 44.4 144.5 51.1 4 0.5 7.7 1 14.7 2 13.6 1.9 22.3 5 29.1 11.9 8.3 8.3 15.9 22.6 26.3 45.9 4.1 9.1 14.8 13.2 23.9 9.2 9.1-4.1 13.2-14.8 9.2-23.9-12.2-27.3-21.8-44.7-33.7-56.7-13.4-13.4-28.1-19.2-49.7-22.3-2.2-0.3-8.4-1.1-14.9-2-42.3-5.7-105.5-14.2-117.6-33-3.5-9.7-0.5-20 2-28.8 5.6-19.6 10.3-35.8-6.1-48.6 7.4 1.3 14.7 2.1 20.5 2.3 10 0.2 18.3-7.7 18.5-17.7 0.2-10-7.7-18.3-17.7-18.5-5.9-0.1-14.7-1.5-23.4-3.3-2-0.4-3.9-0.8-5.8-1.3 2.6-6.7 4.5-12.6 6.4-18.6 1-3 2-6 3-9.1 0.4-1 0.7-2 0.9-3.1 2.1-9.8-4.2-19.4-14-21.5-3.4-0.7-8.1-1.6-13.2-2.6-11.5-2.2-25.9-5-34-7.4-0.9-0.2-1.5-0.5-2-0.8-1.1-0.6-1.8-1.2-2.1-1.9-0.1-0.2-0.1-0.5 0.1-0.9 0.1-0.4 0.3-0.8 0.4-1.1 8.6-15.9 18.3-32.1 27.8-48 25.3-42.5 49.2-82.8 45.3-103.2-1.7-8.6-2.5-17.5-2.5-26.4 0-48.9 24.5-98.7 63.2-139.2 39.3-41.2 92.9-72.5 150.6-83.6 14.6-2.8 29.6-4.3 44.8-4.3 71.3 0 135.7 23.9 181.5 65.3 43.5 39.4 70.4 94.8 70.4 160.5 0 69.8-24.6 114.9-48.6 158.7-18.6 34.1-36.9 67.4-44.9 111.1-11.7 63.6 42 150.8 67.3 192 3.6 5.8 6.5 10.6 9 15 4.9 8.7 16 11.9 24.7 7 8.7-5 11.8-16 6.9-24.8z" p-id="21553"></path></svg>