<?xml version="1.0" standalone="no"?><!DOCTYPE svg PUBLIC "-//W3C//DTD SVG 1.1//EN" "http://www.w3.org/Graphics/SVG/1.1/DTD/svg11.dtd"><svg t="1654588543199" class="icon" viewBox="0 0 1024 1024" version="1.1" xmlns="http://www.w3.org/2000/svg" p-id="41058" xmlns:xlink="http://www.w3.org/1999/xlink" width="128" height="128"><defs><style type="text/css">@font-face { font-family: feedback-iconfont; src: url("//at.alicdn.com/t/font_1031158_u69w8yhxdu.woff2?t=1630033759944") format("woff2"), url("//at.alicdn.com/t/font_1031158_u69w8yhxdu.woff?t=1630033759944") format("woff"), url("//at.alicdn.com/t/font_1031158_u69w8yhxdu.ttf?t=1630033759944") format("truetype"); }
</style></defs><path d="M962.537 512.415c0 247.695-200.797 448.493-448.492 448.493s-448.491-200.799-448.491-448.493c0-247.696 200.797-448.493 448.491-448.493 247.695 0 448.492 200.797 448.492 448.493zM514.046 149.876c-200.224 0-362.54 162.315-362.54 362.538 0 200.226 162.315 362.54 362.54 362.54 200.223 0 362.538-162.314 362.538-362.54 0-200.224-162.315-362.538-362.538-362.538z" p-id="41059"></path><path d="M383.785 512.415c0 71.941 58.32 130.26 130.26 130.26s130.26-58.32 130.26-130.26c0-71.941-58.32-130.26-130.26-130.26-71.941 0-130.26 58.32-130.26 130.26z" p-id="41060"></path></svg>