<?xml version="1.0" standalone="no"?><!DOCTYPE svg PUBLIC "-//W3C//DTD SVG 1.1//EN" "http://www.w3.org/Graphics/SVG/1.1/DTD/svg11.dtd"><svg t="1651743577085" class="icon" viewBox="0 0 1024 1024" version="1.1" xmlns="http://www.w3.org/2000/svg" p-id="12154" xmlns:xlink="http://www.w3.org/1999/xlink" width="200" height="200"><defs><style type="text/css">@font-face { font-family: feedback-iconfont; src: url("//at.alicdn.com/t/font_1031158_u69w8yhxdu.woff2?t=1630033759944") format("woff2"), url("//at.alicdn.com/t/font_1031158_u69w8yhxdu.woff?t=1630033759944") format("woff"), url("//at.alicdn.com/t/font_1031158_u69w8yhxdu.ttf?t=1630033759944") format("truetype"); }
</style></defs><path d="M192 631.3c-6.9 0-13.8-2.9-18.8-8.5l-67.7-76.7c-9.1-10.4-8.1-26.2 2.2-35.3 10.4-9.1 26.2-8.1 35.3 2.2l67.7 76.7c9.1 10.4 8.1 26.2-2.2 35.3-4.7 4.3-10.6 6.3-16.5 6.3z m7.3 5.3c-7 0-14-2.9-18.9-8.7-9-10.5-7.9-26.2 2.6-35.3l81.7-70.5c10.5-9 26.2-7.9 35.3 2.6s7.9 26.2-2.6 35.3l-81.7 70.5c-4.8 4.1-10.6 6.1-16.4 6.1z m333.1 273.2c-16.6 0-30-13.4-30-30s13.4-30 30-30c164.9 0 299.1-134.2 299.1-299.1S697.3 251.6 532.4 251.6c-164.9 0-299.1 134.2-299.1 299.1 0 16.6-13.4 30-30 30s-30-13.4-30-30c0-48.5 9.5-95.5 28.2-139.8 18.1-42.8 44-81.2 76.9-114.1 33-33 71.4-58.9 114.1-76.9 44.3-18.7 91.3-28.2 139.8-28.2s95.5 9.5 139.8 28.2c42.8 18.1 81.2 44 114.1 76.9 33 33 58.9 71.4 76.9 114.1 18.7 44.3 28.2 91.3 28.2 139.8 0 48.5-9.5 95.5-28.2 139.8-18.1 42.8-44 81.2-76.9 114.1-33 33-71.4 58.9-114.1 76.9-44.2 18.8-91.2 28.3-139.7 28.3z" p-id="12155"></path></svg>