<?xml version="1.0" standalone="no"?><!DOCTYPE svg PUBLIC "-//W3C//DTD SVG 1.1//EN" "http://www.w3.org/Graphics/SVG/1.1/DTD/svg11.dtd"><svg t="1651743589811" class="icon" viewBox="0 0 1024 1024" version="1.1" xmlns="http://www.w3.org/2000/svg" p-id="12957" xmlns:xlink="http://www.w3.org/1999/xlink" width="200" height="200"><defs><style type="text/css">@font-face { font-family: feedback-iconfont; src: url("//at.alicdn.com/t/font_1031158_u69w8yhxdu.woff2?t=1630033759944") format("woff2"), url("//at.alicdn.com/t/font_1031158_u69w8yhxdu.woff?t=1630033759944") format("woff"), url("//at.alicdn.com/t/font_1031158_u69w8yhxdu.ttf?t=1630033759944") format("truetype"); }
</style></defs><path d="M627.2 307.2H353.28L435.2 253.44c12.8-7.68 15.36-23.04 7.68-35.84-7.68-12.8-23.04-15.36-35.84-7.68l-153.6 102.4c-7.68 5.12-10.24 12.8-10.24 20.48s5.12 15.36 10.24 20.48l153.6 102.4c2.56 5.12 7.68 5.12 12.8 5.12 7.68 0 15.36-5.12 20.48-10.24 7.68-12.8 5.12-28.16-7.68-35.84L348.16 358.4h279.04c112.64 0 204.8 92.16 204.8 204.8s-92.16 204.8-204.8 204.8h-460.8c-15.36 0-25.6 10.24-25.6 25.6s10.24 25.6 25.6 25.6h460.8c140.8 0 256-115.2 256-256s-115.2-256-256-256z" p-id="12958"></path></svg>