<?xml version="1.0" standalone="no"?><!DOCTYPE svg PUBLIC "-//W3C//DTD SVG 1.1//EN" "http://www.w3.org/Graphics/SVG/1.1/DTD/svg11.dtd"><svg t="1654588730881" class="icon" viewBox="0 0 1024 1024" version="1.1" xmlns="http://www.w3.org/2000/svg" p-id="43394" xmlns:xlink="http://www.w3.org/1999/xlink" width="128" height="128"><defs><style type="text/css">@font-face { font-family: feedback-iconfont; src: url("//at.alicdn.com/t/font_1031158_u69w8yhxdu.woff2?t=1630033759944") format("woff2"), url("//at.alicdn.com/t/font_1031158_u69w8yhxdu.woff?t=1630033759944") format("woff"), url("//at.alicdn.com/t/font_1031158_u69w8yhxdu.ttf?t=1630033759944") format("truetype"); }
</style></defs><path d="M802.601564 129.349997c-37.981033-44.971238-79.494519-64.160275-138.812509-64.160275-43.929512 0-74.093509 18.137079-100.70254 34.147728-18.223037 10.963703-34.018791 20.467147-51.092655 21.862937-17.073864-1.39579-32.879851-10.899234-51.102888-21.862937-26.598798-16.010649-56.751538-34.147728-100.68105-34.147728-59.349713 0-100.864222 19.189038-138.812509 64.160275-75.736938 89.685625 21.788236 312.803215 25.986861 322.253448 15.420201 34.834366 10.54517 84.509742 5.830799 132.541689-3.393283 34.576493-6.603395 67.242474-2.63092 95.634104 13.497409 96.503914 56.020898 279.032064 120.396067 279.032064 29.003568 0 35.275411-33.986045 50.447972-116.101251 14.646582-79.301114 41.72838-225.984894 90.565668-234.403634 48.826032 8.41874 75.919087 155.081031 90.565668 234.382145 15.173584 82.125439 21.454638 116.122741 50.459229 116.122741 55.612599 0 107.199511-144.740522 120.493282-279.923364 2.609431-26.491351-0.279363-56.837496-3.340071-88.954985-4.767584-50.104141-9.69685-101.904924 6.442736-138.318252C780.814352 442.153212 878.338502 219.035622 802.601564 129.349997zM736.412073 433.788707c-20.810978 46.947242-15.07637 107.166765-10.019191 160.310126 2.845815 29.937846 5.541203 58.222029 3.350304 80.483033-11.876492 120.739898-47.999201 204.37983-69.2502 231.53633-4.724605-17.535375-10.105149-46.657646-14.679327-71.430866-21.626553-117.057019-48.547693-262.742053-131.789559-270.441409-0.676405-0.064468-1.352811-0.096191-2.029216-0.096191-0.676405 0-1.352811 0.031722-2.029216 0.096191-83.264379 7.699356-110.174262 153.405879-131.789559 270.473131-4.520967 24.439622-9.81453 53.121871-14.496156 70.731948-18.780739-26.051329-51.435463-102.291734-69.540819-231.772714-3.242857-23.205515-0.279363-53.336766 2.845815-85.23936 5.272074-53.69083 10.727319-109.218494-9.395998-154.651242-37.959543-85.690638-73.180719-227.993644-32.580023-276.067546 29.486568-34.93158 58.97416-48.547693 105.202017-48.547693 31.720446 0 54.206576 13.530155 78.012771 27.844162 21.680788 13.047154 44.101427 26.53433 72.493058 28.187993 0.858554 0.042979 1.696642 0.042979 2.555196 0 28.381397-1.653663 50.802036-15.140839 72.482825-28.176736 23.817452-14.32424 46.313815-27.854395 78.034261-27.854395 46.206368 0 75.704193 13.616112 105.202017 48.547693C809.592792 205.795063 774.371616 348.097046 736.412073 433.788707z" p-id="43395"></path></svg>